PathFileType	4	(x/y/z)	S09_PSF_T07
DataRate	CameraRate	NumFrames	NumMarkers	Units	OrigDataRate	OrigDataStartFrame	OrigNumFrames
240	240	4	51	mm	240	286	456
Frame#	Time	Sternum			R.Acromium			L.Acromium			Top.Head			R.ASIS			L.ASIS			R.PSIS			L.PSIS			R.Great.Tro			L.Great.Tro			R.Iliac.Crest			L.Iliac.Crest			V.Sacral			R.Thigh.Upper.Post			R.Thigh.Lower.Ant			R.Thigh.Lower.Post			R.Thigh.Upper.Ant			R.Knee.Lat			R.Knee.Med			R.Shank.Upper.Post			R.Shank.Lower.Ant			R.Shank.Lower.Post			R.Shank.Upper.Ant			R.Ankle.Lat			R.Ankle.Med			R.Heel.Upper			R.Heel.Med			R.Heel.Lat			R.Toe.Lat			R.Toe.Med			R.Toe.Tip			L.Thigh.Upper.Post			L.Thigh.Lower.Ant			L.Thigh.Lower.Post			L.Thigh.Upper.Ant			L.Knee.Lat			L.Knee.Med			L.Shank.Upper.Post			L.Shank.Lower.Ant			L.Shank.Lower.Post			L.Shank.Upper.Ant			L.Ankle.Lat			L.Ankle.Med			L.Heel.Upper			L.Heel.Med			L.Heel.Lat			L.Toe.Lat			L.Toe.Med			L.Toe.Tip			Cervical.Spine			Back			
		X1	Y1	Z1	X2	Y2	Z2	X3	Y3	Z3	X4	Y4	Z4	X5	Y5	Z5	X6	Y6	Z6	X7	Y7	Z7	X8	Y8	Z8	X9	Y9	Z9	X10	Y10	Z10	X11	Y11	Z11	X12	Y12	Z12	X13	Y13	Z13	X14	Y14	Z14	X15	Y15	Z15	X16	Y16	Z16	X17	Y17	Z17	X18	Y18	Z18	X19	Y19	Z19	X20	Y20	Z20	X21	Y21	Z21	X22	Y22	Z22	X23	Y23	Z23	X24	Y24	Z24	X25	Y25	Z25	X26	Y26	Z26	X27	Y27	Z27	X28	Y28	Z28	X29	Y29	Z29	X30	Y30	Z30	X31	Y31	Z31	X32	Y32	Z32	X33	Y33	Z33	X34	Y34	Z34	X35	Y35	Z35	X36	Y36	Z36	X37	Y37	Z37	X38	Y38	Z38	X39	Y39	Z39	X40	Y40	Z40	X41	Y41	Z41	X42	Y42	Z42	X43	Y43	Z43	X44	Y44	Z44	X45	Y45	Z45	X46	Y46	Z46	X47	Y47	Z47	X48	Y48	Z48	X49	Y49	Z49	X50	Y50	Z50	X51	Y51	Z51	

286	1.1875	5.5161	1158.9	354.01	-134.43	1404.9	509.58	-150.32	1397.4	194.3	-105.34	1711	345.78	-51.224	992.3	477.39	-36.629	993.65	231.82	-267.97	1018.9	381.49	-255.68	1011.6	293.11	-149.59	914.69	546.94	-98.768	902.11	158.28	-142.22	1074.4	513.37	-146.8	1083.5	190.08	-281.05	979.88	333.55	-225.37	676.46	509.3	-183.18	559.57	473	-255.4	591.31	479.44	-161.45	643.75	502.06	-233.69	494.1	460.6	-236.37	488.84	338.9	-369.8	360.62	463.58	-331.65	278.69	449.58	-403.4	292.87	452.56	-304.97	346.88	463.57	-455.45	112.41	429.17	-429.56	115.17	338.85	-527.23	99.002	380.21	-521.95	64.39	353.64	-527.99	71.04	418.1	-371.47	40.68	469.89	-323.1	37.769	363.46	-273.37	45.809	410.22	-78.511	637.78	194.21	30.078	572.46	193.56	-35.041	558.09	211.76	-9.7997	649.27	170.49	44.968	499.15	202.31	50.209	507.93	340.5	58.733	360.45	189.69	155.64	307.64	199.24	93.001	291.34	193.72	120.51	376.74	196.08	209.9	121.38	210.69	228.27	125.69	303.28	167.7	56.259	264.3	191.71	41.54	296.6	181.65	31.949	235.99	332.98	108.97	176.18	366.69	131.63	283.33	399.58	171.68	223.9	-214.91	1452	366.39	-261.63	1181.3	357.2
287	1.1917	11.309	1158	353.15	-128.64	1403.8	508.89	-144.65	1396.7	193.62	-100.17	1710.2	345.45	-45.382	991.31	476.78	-30.544	993.29	231.23	-262.09	1017.9	380.73	-249.7	1010.7	292.33	-144	913.59	546.2	-92.148	901.76	157.69	-136.39	1073.4	512.7	-140.85	1083	189.49	-275.1	978.96	332.74	-219.99	675.48	508.5	-177.88	558.55	472.29	-250.07	590.36	478.6	-156.08	642.71	501.35	-228.59	493.09	459.9	-231.14	487.84	338.21	-365.9	360.97	463.07	-328.76	278.61	449.05	-400.24	293.59	452.21	-301.27	346.5	462.95	-454.42	113.71	429.12	-428.5	116.15	338.73	-526.36	100.81	380.15	-521.41	66.179	353.53	-527.4	72.797	418.01	-371.25	40.835	469.85	-322.8	37.772	363.53	-273.08	45.565	410.33	-71.206	637.35	193.88	37.679	572.41	193.98	-27.582	557.81	211.67	-2.1413	649.1	170.56	52.389	498.88	202.72	57.518	508.26	340.58	64.683	360.15	189.9	160.88	306.17	199.92	98.086	290.62	193.99	126.6	375.68	196.73	212.6	119.67	211.13	230.59	123.36	303.87	169.36	55.859	264.35	192.98	40.794	296.81	182.96	31.31	236.16	335.38	105.85	177.05	368.99	128	284.34	402.48	167.76	224.99	-209.19	1451.1	365.77	-255.91	1180.5	356.5
288	1.1958	17.126	1157.1	352.27	-122.84	1402.8	508.19	-138.96	1396.1	192.92	-94.993	1709.5	345.12	-39.48	990.33	476.15	-24.428	992.99	230.61	-256.17	1016.9	379.98	-243.68	1009.9	291.55	-138.34	912.49	545.44	-85.474	901.44	157.1	-130.51	1072.4	512.02	-134.87	1082.4	188.89	-269.11	978.08	331.93	-214.48	674.5	507.66	-172.43	557.52	471.53	-244.61	589.39	477.72	-150.59	641.67	500.6	-223.33	492.07	459.18	-225.79	486.85	337.48	-361.88	361.36	462.55	-325.78	278.56	448.52	-396.97	294.35	451.84	-297.47	346.14	462.31	-453.32	115.1	429.06	-427.35	117.2	338.61	-525.41	102.75	380.08	-520.79	68.117	353.41	-526.75	74.695	417.91	-371.02	41.015	469.8	-322.49	37.774	363.59	-272.78	45.329	410.44	-63.908	636.97	193.58	45.262	572.38	194.4	-20.143	557.57	211.61	5.5063	648.96	170.65	59.792	498.66	203.13	64.831	508.62	340.67	70.614	359.9	190.11	166.09	304.76	200.57	103.14	289.97	194.23	132.66	374.67	197.35	215.21	118.02	211.52	232.85	121.05	304.39	170.9	55.62	264.36	194.09	40.164	296.95	184.08	30.805	236.27	337.63	102.63	177.85	371.18	124.25	285.24	405.3	163.66	225.97	-203.47	1450.3	365.15	-250.17	1179.7	355.79
289	1.2	22.968	1156.3	351.38	-117.05	1401.8	507.48	-133.25	1395.5	192.23	-89.821	1708.8	344.79	-33.519	989.39	475.49	-18.284	992.74	229.97	-250.2	1016	379.24	-237.62	1009.1	290.77	-132.61	911.39	544.66	-78.748	901.16	156.5	-124.57	1071.4	511.34	-128.85	1081.9	188.28	-263.09	977.23	331.12	-208.85	673.51	506.77	-166.84	556.5	470.73	-239.01	588.41	476.81	-144.97	640.64	499.79	-217.93	491.04	458.45	-220.31	485.86	336.74	-357.73	361.78	462.03	-322.67	278.54	447.99	-393.57	295.17	451.46	-293.56	345.81	461.67	-452.13	116.58	429.01	-426.11	118.34	338.49	-524.37	104.85	380	-520.1	70.211	353.27	-526.02	76.742	417.79	-370.77	41.224	469.74	-322.16	37.777	363.66	-272.47	45.103	410.55	-56.63	636.64	193.3	52.809	572.38	194.83	-12.743	557.37	211.57	13.123	648.87	170.76	67.16	498.48	203.51	72.12	509.02	340.75	76.529	359.71	190.3	171.28	303.42	201.18	108.19	289.38	194.44	138.71	373.72	197.94	217.76	116.44	211.83	235.07	118.82	304.84	172.33	55.543	264.33	195.08	39.657	297.03	185.04	30.441	236.33	339.76	99.353	178.57	373.3	120.39	286.06	408.08	159.41	226.83	-197.75	1449.6	364.52	-244.4	1178.9	355.06
